<?xml version="1.0" encoding="UTF-8" standalone="no"?>
<svg
   xmlns:dc="http://purl.org/dc/elements/1.1/"
   xmlns:cc="http://creativecommons.org/ns#"
   xmlns:rdf="http://www.w3.org/1999/02/22-rdf-syntax-ns#"
   xmlns:svg="http://www.w3.org/2000/svg"
   xmlns="http://www.w3.org/2000/svg"
   xmlns:sodipodi="http://sodipodi.sourceforge.net/DTD/sodipodi-0.dtd"
   xmlns:inkscape="http://www.inkscape.org/namespaces/inkscape"
   viewBox="0 0 36 36"
   version="1.1"
   id="svg821"
   sodipodi:docname="mute_icon.svg"
   inkscape:version="0.92.2 (5c3e80d, 2017-08-06)"
   inkscape:export-filename="C:\icon32.png"
   inkscape:export-xdpi="85.333336"
   inkscape:export-ydpi="85.333336">
  <metadata
     id="metadata827">
    <rdf:RDF>
      <cc:Work
         rdf:about="">
        <dc:format>image/svg+xml</dc:format>
        <dc:type
           rdf:resource="http://purl.org/dc/dcmitype/StillImage" />
        <dc:title />
      </cc:Work>
    </rdf:RDF>
  </metadata>
  <defs
     id="defs825" />
  <sodipodi:namedview
     pagecolor="#ffffff"
     bordercolor="#666666"
     borderopacity="1"
     objecttolerance="10"
     gridtolerance="10"
     guidetolerance="10"
     inkscape:pageopacity="0"
     inkscape:pageshadow="2"
     inkscape:window-width="1920"
     inkscape:window-height="1027"
     id="namedview823"
     showgrid="false"
     inkscape:measure-start="0,0"
     inkscape:measure-end="0,0"
     showguides="true"
     inkscape:guide-bbox="true"
     inkscape:zoom="4"
     inkscape:cx="-61.422262"
     inkscape:cy="65.936225"
     inkscape:window-x="-8"
     inkscape:window-y="-8"
     inkscape:window-maximized="1"
     inkscape:current-layer="svg821" />
  <path
     d="m 3.0719867,10 c 0,0 -1.9999993,0 -1.9999993,2 v 12 c 0,2 1.9999993,2 1.9999993,2 h 6 l 8.0000073,8 c 0,0 1,1 2,1 h 1 c 0,0 1,0 1,-1 V 2 c 0,0 0,-1 -1,-1 h -1 c -1,0 -2,1 -2,1 l -8.0000073,8 z"
     id="path815"
     style="fill:#768697;fill-opacity:1;stroke-width:0.6;stroke-miterlimit:4;stroke-dasharray:none;stroke:#141414;stroke-opacity:1"
     inkscape:connector-curvature="0" />
  <path
     d="m 9.0719867,26 8.0000073,8 c 0,0 1,1 2,1 h 1 c 0,0 1,0 1,-1 V 2 c 0,0 0,-1 -1,-1 h -1 c -1,0 -2,1 -2,1 l -8.0000073,8 z"
     id="path817"
     style="fill:#b5b5b5;fill-opacity:1;stroke-width:0.7;stroke-miterlimit:4;stroke-dasharray:none;stroke:#141414;stroke-opacity:1"
     inkscape:connector-curvature="0" />
  <path
     style="color:#000000;font-style:normal;font-variant:normal;font-weight:normal;font-stretch:normal;font-size:medium;line-height:normal;font-family:sans-serif;font-variant-ligatures:normal;font-variant-position:normal;font-variant-caps:normal;font-variant-numeric:normal;font-variant-alternates:normal;font-feature-settings:normal;text-indent:0;text-align:start;text-decoration:none;text-decoration-line:none;text-decoration-style:solid;text-decoration-color:#000000;letter-spacing:normal;word-spacing:normal;text-transform:none;writing-mode:lr-tb;direction:ltr;text-orientation:mixed;dominant-baseline:auto;baseline-shift:baseline;text-anchor:start;white-space:normal;shape-padding:0;clip-rule:nonzero;display:inline;overflow:visible;visibility:visible;opacity:1;isolation:auto;mix-blend-mode:normal;color-interpolation:sRGB;color-interpolation-filters:linearRGB;solid-color:#000000;solid-opacity:1;vector-effect:none;fill:#282828;fill-opacity:1;fill-rule:nonzero;stroke:none;stroke-width:0.4;stroke-linecap:round;stroke-linejoin:round;stroke-miterlimit:4;stroke-dasharray:none;stroke-dashoffset:0;stroke-opacity:1;color-rendering:auto;image-rendering:auto;shape-rendering:auto;text-rendering:auto;enable-background:accumulate"
     d="M 24.007812 12.273438 A 1.10011 1.10011 0 0 0 23.242188 14.162109 L 27.140625 18.0625 L 23.242188 21.960938 A 1.10011 1.10011 0 1 0 24.796875 23.517578 L 28.697266 19.617188 L 32.595703 23.517578 A 1.1007111 1.1007111 0 1 0 34.152344 21.960938 L 30.251953 18.0625 L 34.152344 14.162109 A 1.10011 1.10011 0 0 0 33.353516 12.273438 A 1.10011 1.10011 0 0 0 32.595703 12.607422 L 28.697266 16.505859 L 24.796875 12.607422 A 1.10011 1.10011 0 0 0 24.007812 12.273438 z "
     id="path4525" />
</svg>
